<?xml version="1.0" standalone="no"?><svg xmlns="http://www.w3.org/2000/svg" viewBox="0 0 1440 320"><path fill="#5000ca" fill-opacity="1" d="M0,256L30,234.7C60,213,120,171,180,149.3C240,128,300,128,360,133.3C420,139,480,149,540,138.7C600,128,660,96,720,101.3C780,107,840,149,900,144C960,139,1020,85,1080,74.7C1140,64,1200,96,1260,138.7C1320,181,1380,235,1410,261.3L1440,288L1440,0L1410,0C1380,0,1320,0,1260,0C1200,0,1140,0,1080,0C1020,0,960,0,900,0C840,0,780,0,720,0C660,0,600,0,540,0C480,0,420,0,360,0C300,0,240,0,180,0C120,0,60,0,30,0L0,0Z"></path></svg>